<svg width="50" height="40" viewBox="0 0 50 40" fill="none" xmlns="http://www.w3.org/2000/svg">
<path d="M14.7152 5.14428C15.8306 3.49098 17.6946 2.5 19.689 2.5H26.2949C31.1021 2.5 33.9573 7.87068 31.2687 11.8557L23.8656 22.8286C22.7502 24.4819 20.8862 25.4729 18.8918 25.4729H12.2859C7.47871 25.4729 4.62345 20.1022 7.31205 16.1172L14.7152 5.14428Z" fill="#DAFF00"/>
<path d="M19.7877 27.602C18.3088 27.602 16.9266 28.3368 16.0995 29.5627C14.106 32.5177 16.2231 36.5 19.7877 36.5H30.311C32.3054 36.5 34.1694 35.509 35.2848 33.8557L42.6879 22.8828C45.3765 18.8978 42.5213 13.5271 37.7141 13.5271H35.8922C33.8978 13.5271 32.0338 14.5181 30.9184 16.1714L24.8238 25.2046C23.8126 26.7035 22.1226 27.602 20.3144 27.602H19.7877Z" fill="#DAFF00"/>
</svg>
