<svg width="166" height="42" viewBox="0 0 166 42" fill="none" xmlns="http://www.w3.org/2000/svg">
<path d="M14.7152 6.64428C15.8306 4.99098 17.6946 4 19.689 4H26.2949C31.1021 4 33.9573 9.37068 31.2687 13.3557L23.8656 24.3286C22.7502 25.9819 20.8862 26.9729 18.8918 26.9729H12.2859C7.47871 26.9729 4.62345 21.6022 7.31205 17.6172L14.7152 6.64428Z" fill="#DAFF00"/>
<path d="M19.7877 29.102C18.3088 29.102 16.9266 29.8368 16.0995 31.0627C14.106 34.0177 16.2231 38 19.7877 38H30.311C32.3054 38 34.1694 37.009 35.2848 35.3557L42.6879 24.3828C45.3765 20.3978 42.5213 15.0271 37.7141 15.0271H35.8922C33.8978 15.0271 32.0338 16.0181 30.9184 17.6714L24.8238 26.7046C23.8126 28.2035 22.1226 29.102 20.3144 29.102H19.7877Z" fill="#DAFF00"/>
<path d="M63.116 31L58.44 24.364V31H53.652V10.28H58.44V21.648L63.116 15.376H68.744L62.444 23.188L68.884 31H63.116ZM75.4205 18.316C76.0178 17.364 76.7831 16.608 77.7165 16.048C78.6685 15.488 79.6951 15.208 80.7965 15.208V20.332H79.4245C78.1551 20.332 77.1658 20.6027 76.4565 21.144C75.7658 21.6853 75.4205 22.6 75.4205 23.888V31H70.6325V15.376H75.4205V18.316ZM97.6404 22.768C97.6404 23.16 97.5938 23.5893 97.5004 24.056H86.6644C86.7204 25.232 87.0191 26.0813 87.5604 26.604C88.1018 27.108 88.7924 27.36 89.6324 27.36C90.3418 27.36 90.9298 27.1827 91.3964 26.828C91.8631 26.4733 92.1711 26.016 92.3204 25.456H97.3884C97.1831 26.5573 96.7351 27.5467 96.0444 28.424C95.3538 29.2827 94.4764 29.964 93.4124 30.468C92.3484 30.9533 91.1631 31.196 89.8564 31.196C88.3258 31.196 86.9631 30.8787 85.7684 30.244C84.5924 29.5907 83.6684 28.6573 82.9964 27.444C82.3244 26.2307 81.9884 24.812 81.9884 23.188C81.9884 21.5453 82.3151 20.1267 82.9684 18.932C83.6404 17.7187 84.5738 16.7947 85.7684 16.16C86.9631 15.5067 88.3258 15.18 89.8564 15.18C91.4058 15.18 92.7684 15.4973 93.9444 16.132C95.1204 16.7667 96.0258 17.6627 96.6604 18.82C97.3138 19.9587 97.6404 21.2747 97.6404 22.768ZM92.7964 22.04C92.8151 21.0133 92.5351 20.248 91.9564 19.744C91.3964 19.2213 90.6964 18.96 89.8564 18.96C88.9791 18.96 88.2511 19.2213 87.6724 19.744C87.0938 20.2667 86.7671 21.032 86.6924 22.04H92.7964ZM106.072 15.18C107.267 15.18 108.294 15.4507 109.152 15.992C110.011 16.5333 110.646 17.2707 111.056 18.204V15.376H115.816V31H111.056V28.172C110.646 29.1053 110.011 29.8427 109.152 30.384C108.294 30.9253 107.267 31.196 106.072 31.196C104.784 31.196 103.627 30.8787 102.6 30.244C101.592 29.5907 100.79 28.6573 100.192 27.444C99.6137 26.2307 99.3244 24.812 99.3244 23.188C99.3244 21.5453 99.6137 20.1267 100.192 18.932C100.79 17.7187 101.592 16.7947 102.6 16.16C103.627 15.5067 104.784 15.18 106.072 15.18ZM107.612 19.38C106.586 19.38 105.755 19.716 105.12 20.388C104.504 21.06 104.196 21.9933 104.196 23.188C104.196 24.3827 104.504 25.316 105.12 25.988C105.755 26.66 106.586 26.996 107.612 26.996C108.62 26.996 109.442 26.6507 110.076 25.96C110.73 25.2693 111.056 24.3453 111.056 23.188C111.056 22.012 110.73 21.088 110.076 20.416C109.442 19.7253 108.62 19.38 107.612 19.38ZM127.961 26.884V31H125.805C123.976 31 122.548 30.552 121.521 29.656C120.513 28.7413 120.009 27.2387 120.009 25.148V19.408H117.909V15.376H120.009V11.54H124.797V15.376H127.933V19.408H124.797V25.232C124.797 25.848 124.918 26.2773 125.161 26.52C125.422 26.7627 125.852 26.884 126.449 26.884H127.961ZM137.96 15.18C139.509 15.18 140.891 15.5067 142.104 16.16C143.336 16.7947 144.297 17.7187 144.988 18.932C145.697 20.1453 146.052 21.564 146.052 23.188C146.052 24.812 145.697 26.2307 144.988 27.444C144.297 28.6573 143.336 29.5907 142.104 30.244C140.891 30.8787 139.509 31.196 137.96 31.196C136.411 31.196 135.02 30.8787 133.788 30.244C132.556 29.5907 131.585 28.6573 130.876 27.444C130.185 26.2307 129.84 24.812 129.84 23.188C129.84 21.564 130.185 20.1453 130.876 18.932C131.585 17.7187 132.556 16.7947 133.788 16.16C135.02 15.5067 136.411 15.18 137.96 15.18ZM137.96 19.324C137.045 19.324 136.271 19.66 135.636 20.332C135.02 20.9853 134.712 21.9373 134.712 23.188C134.712 24.4387 135.02 25.3907 135.636 26.044C136.271 26.6973 137.045 27.024 137.96 27.024C138.875 27.024 139.64 26.6973 140.256 26.044C140.872 25.3907 141.18 24.4387 141.18 23.188C141.18 21.9373 140.872 20.9853 140.256 20.332C139.64 19.66 138.875 19.324 137.96 19.324ZM158.279 15.18C159.567 15.18 160.715 15.5067 161.723 16.16C162.749 16.7947 163.552 17.7187 164.131 18.932C164.728 20.1267 165.027 21.5453 165.027 23.188C165.027 24.812 164.728 26.2307 164.131 27.444C163.552 28.6573 162.749 29.5907 161.723 30.244C160.715 30.8787 159.567 31.196 158.279 31.196C157.084 31.196 156.057 30.9253 155.199 30.384C154.34 29.8427 153.715 29.1053 153.323 28.172V38.448H148.535V15.376H153.323V18.204C153.715 17.2707 154.34 16.5333 155.199 15.992C156.057 15.4507 157.084 15.18 158.279 15.18ZM156.739 19.38C155.731 19.38 154.9 19.7253 154.247 20.416C153.612 21.088 153.295 22.012 153.295 23.188C153.295 24.3453 153.612 25.2693 154.247 25.96C154.9 26.6507 155.731 26.996 156.739 26.996C157.765 26.996 158.587 26.66 159.203 25.988C159.837 25.316 160.155 24.3827 160.155 23.188C160.155 21.9933 159.837 21.06 159.203 20.388C158.587 19.716 157.765 19.38 156.739 19.38Z" fill="white"/>
</svg>
