<svg width="381" height="254" viewBox="0 0 381 254" fill="none" xmlns="http://www.w3.org/2000/svg">
<mask id="mask0_16_326" style="mask-type:alpha" maskUnits="userSpaceOnUse" x="0" y="0" width="381" height="254">
<rect x="0.618042" y="0.5" width="380" height="253" rx="36" fill="#DAFF00"/>
</mask>
<g mask="url(#mask0_16_326)">
<g opacity="0.2">
<path fill-rule="evenodd" clip-rule="evenodd" d="M296.348 27.8758C298.274 41.5857 299.125 56.6567 295.104 73.1187C287.081 105.962 272.393 128.594 248.123 142.993C229.838 153.841 206.151 159.991 175.861 162.359C215.861 161.37 245.698 155.134 267.613 142.133C291.593 127.906 306.155 105.538 314.132 72.8814C318.111 56.5934 317.275 41.6644 315.357 28.0149C314.693 23.2856 313.9 18.7199 313.133 14.3006L313.132 14.2934C312.791 12.331 312.456 10.3975 312.139 8.49127C311.109 2.30088 310.276 -3.5905 310.118 -9.17339C309.803 -20.3604 312.202 -30.3414 321.159 -39.0843C330.084 -47.7961 345.472 -55.2289 370.999 -61.4856L371.237 -60.5143C345.764 -54.271 330.589 -46.8913 321.858 -38.3687C313.159 -29.8773 310.808 -20.2021 311.118 -9.20155C311.273 -3.69069 312.096 2.14449 313.125 8.32715C313.438 10.2066 313.77 12.1191 314.107 14.0636L314.108 14.0695L314.113 14.0975L314.115 14.1121C314.884 18.5384 315.681 23.1306 316.348 27.8758C318.274 41.5857 319.125 56.6567 315.104 73.1187C307.081 105.962 292.393 128.594 268.123 142.993C249.838 153.841 226.151 159.991 195.861 162.359C235.861 161.37 265.698 155.134 287.613 142.133C311.593 127.906 326.155 105.538 334.132 72.8814C338.111 56.5934 337.275 41.6644 335.357 28.0149C334.693 23.2856 333.9 18.7199 333.133 14.3006L333.132 14.2934C332.791 12.331 332.456 10.3975 332.139 8.49127C331.109 2.30088 330.276 -3.5905 330.118 -9.17339C329.803 -20.3604 332.202 -30.3414 341.159 -39.0843C350.084 -47.7961 365.472 -55.2289 390.999 -61.4856L391.237 -60.5143C365.764 -54.271 350.589 -46.8913 341.858 -38.3687C333.159 -29.8773 330.808 -20.2021 331.118 -9.20155C331.273 -3.69069 332.096 2.14449 333.125 8.32715C333.438 10.2066 333.77 12.1191 334.107 14.0636L334.108 14.0695L334.113 14.0975L334.115 14.1121C334.884 18.5384 335.681 23.1306 336.348 27.8758C338.274 41.5857 339.125 56.6567 335.104 73.1187C327.081 105.962 312.393 128.594 288.123 142.993C269.838 153.841 246.151 159.991 215.861 162.359C255.861 161.37 285.698 155.134 307.613 142.133C331.593 127.906 346.155 105.538 354.132 72.8814C358.111 56.5934 357.275 41.6644 355.357 28.0149C354.693 23.2856 353.9 18.7199 353.133 14.3006L353.132 14.2934C352.791 12.331 352.456 10.3975 352.139 8.49127C351.109 2.30088 350.276 -3.5905 350.118 -9.17339C349.803 -20.3604 352.202 -30.3414 361.159 -39.0843C370.084 -47.7961 385.472 -55.2289 410.999 -61.4856L411.237 -60.5143C385.764 -54.271 370.589 -46.8913 361.858 -38.3687C353.159 -29.8773 350.808 -20.2021 351.118 -9.20155C351.273 -3.69069 352.096 2.14449 353.125 8.32715C353.438 10.2066 353.77 12.1191 354.107 14.0636L354.108 14.0695L354.113 14.0975L354.115 14.1121C354.884 18.5384 355.681 23.1306 356.348 27.8758C358.274 41.5857 359.125 56.6567 355.104 73.1187C347.081 105.962 332.393 128.594 308.123 142.993C289.838 153.841 266.151 159.991 235.861 162.359C275.861 161.37 305.698 155.134 327.613 142.133C351.593 127.906 366.155 105.538 374.132 72.8814C378.111 56.5934 377.275 41.6644 375.357 28.0149C374.693 23.2856 373.9 18.7199 373.133 14.3006L373.132 14.2934C372.791 12.331 372.456 10.3975 372.139 8.49127C371.109 2.30088 370.276 -3.5905 370.118 -9.17339C369.803 -20.3604 372.202 -30.3414 381.159 -39.0843C390.084 -47.7961 405.472 -55.2289 430.999 -61.4856L431.237 -60.5143C405.764 -54.271 390.589 -46.8913 381.858 -38.3687C373.159 -29.8773 370.808 -20.2021 371.118 -9.20155C371.273 -3.69069 372.096 2.14449 373.125 8.32715C373.438 10.2066 373.77 12.1191 374.107 14.0636L374.108 14.0695L374.113 14.0975L374.115 14.1121C374.884 18.5384 375.681 23.1306 376.348 27.8758C378.274 41.5857 379.125 56.6567 375.104 73.1187C367.081 105.962 352.393 128.594 328.123 142.993C309.838 153.841 286.151 159.991 255.861 162.359C295.861 161.37 325.698 155.134 347.613 142.133C371.593 127.906 386.155 105.538 394.132 72.8814C398.111 56.5934 397.275 41.6644 395.357 28.0149C394.693 23.2856 393.9 18.7199 393.133 14.3006L393.132 14.2934C392.791 12.331 392.456 10.3975 392.139 8.49127C391.109 2.30088 390.276 -3.5905 390.118 -9.17339C389.803 -20.3604 392.202 -30.3414 401.159 -39.0843C410.084 -47.7961 425.472 -55.2289 450.999 -61.4856L451.237 -60.5143C425.764 -54.271 410.589 -46.8913 401.858 -38.3687C393.159 -29.8773 390.808 -20.2021 391.118 -9.20155C391.273 -3.69069 392.096 2.14449 393.125 8.32715C393.438 10.2085 393.77 12.1229 394.108 14.0695L394.113 14.0975L394.115 14.1121C394.884 18.5384 395.681 23.1306 396.348 27.8758C398.274 41.5857 399.125 56.6567 395.104 73.1187C387.081 105.962 372.393 128.594 348.123 142.993C329.838 153.841 306.151 159.991 275.861 162.359C315.861 161.37 345.698 155.134 367.613 142.133C391.593 127.906 406.155 105.538 414.132 72.8814C418.111 56.5934 417.275 41.6644 415.357 28.0149C414.693 23.2856 413.9 18.7199 413.133 14.3006L413.132 14.2934C412.791 12.331 412.456 10.3975 412.139 8.49127C411.109 2.30088 410.276 -3.5905 410.118 -9.17339C409.803 -20.3604 412.202 -30.3414 421.159 -39.0843C430.084 -47.7961 445.472 -55.2289 470.999 -61.4856L471.237 -60.5143C445.764 -54.271 430.589 -46.8913 421.858 -38.3687C413.159 -29.8773 410.808 -20.2021 411.118 -9.20155C411.273 -3.69069 412.096 2.14449 413.125 8.32715C413.439 10.2175 413.773 12.1413 414.113 14.0975L414.115 14.1121C414.884 18.5384 415.681 23.1306 416.348 27.8758C418.274 41.5857 419.125 56.6567 415.104 73.1187C407.081 105.962 392.393 128.594 368.123 142.993C343.882 157.374 310.147 163.5 264.118 163.5C227.507 163.5 196.379 183.315 172.315 208.16C148.253 233.004 131.31 262.823 123.08 282.691L122.156 282.309C130.426 262.344 147.433 232.413 171.596 207.465C192.645 185.732 219.166 167.74 250.106 163.464C248.133 163.488 246.137 163.5 244.118 163.5C207.507 163.5 176.379 183.315 152.315 208.16C128.253 233.004 111.31 262.823 103.08 282.691L102.156 282.309C110.426 262.344 127.433 232.413 151.596 207.465C172.645 185.732 199.166 167.74 230.106 163.464C228.133 163.488 226.137 163.5 224.118 163.5C187.507 163.5 156.379 183.315 132.315 208.16C108.253 233.004 91.3102 262.823 83.08 282.691L82.1561 282.309C90.4259 262.344 107.433 232.413 131.596 207.465C152.645 185.732 179.166 167.74 210.106 163.464C208.133 163.488 206.137 163.5 204.118 163.5C167.507 163.5 136.379 183.315 112.315 208.16C88.2532 233.004 71.3102 262.823 63.08 282.691L62.1561 282.309C70.4259 262.344 87.4329 232.413 111.596 207.465C132.645 185.732 159.166 167.74 190.106 163.464C188.133 163.488 186.137 163.5 184.118 163.5C147.507 163.5 116.379 183.315 92.3147 208.16C68.2532 233.004 51.3102 262.823 43.08 282.691L42.1561 282.309C50.4259 262.344 67.4329 232.413 91.5964 207.465C112.645 185.732 139.166 167.74 170.106 163.464C168.133 163.488 166.137 163.5 164.118 163.5C127.507 163.5 96.3785 183.315 72.3147 208.16C48.2532 233.004 31.3102 262.823 23.08 282.691L22.1561 282.309C30.4259 262.344 47.4329 232.413 71.5964 207.465C92.645 185.732 119.166 167.74 150.106 163.464C148.133 163.488 146.137 163.5 144.118 163.5C107.507 163.5 76.3785 183.315 52.3147 208.16C28.2532 233.004 11.3102 262.823 3.08 282.691L2.15613 282.309C10.4259 262.344 27.4329 232.413 51.5964 207.465C75.7576 182.519 107.129 162.5 144.118 162.5C190.089 162.5 223.604 156.376 247.613 142.133C271.593 127.906 286.155 105.538 294.132 72.8814C298.111 56.5934 297.275 41.6644 295.357 28.0149C294.693 23.2856 293.9 18.7199 293.133 14.3006L293.132 14.2934C292.791 12.331 292.456 10.3975 292.139 8.49127C291.109 2.30088 290.276 -3.5905 290.118 -9.17339C289.803 -20.3604 292.202 -30.3414 301.159 -39.0843C310.084 -47.7961 325.472 -55.2289 350.999 -61.4856L351.237 -60.5143C325.764 -54.271 310.589 -46.8913 301.858 -38.3687C293.159 -29.8773 290.808 -20.2021 291.118 -9.20155C291.273 -3.69069 292.096 2.14449 293.125 8.32715C293.438 10.2066 293.77 12.1191 294.107 14.0636L294.108 14.0695L294.113 14.0975L294.115 14.1121C294.884 18.5384 295.681 23.1306 296.348 27.8758Z" fill="white"/>
</g>
</g>
</svg>
