<svg width="24" height="25" viewBox="0 0 24 25" fill="none" xmlns="http://www.w3.org/2000/svg">
<path d="M12.02 3.42316C8.71 3.42316 6.02 6.11316 6.02 9.42316V12.3132C6.02 12.9232 5.76 13.8532 5.45 14.3732L4.3 16.2832C3.59 17.4632 4.08 18.7732 5.38 19.2132C9.69 20.6532 14.34 20.6532 18.65 19.2132C19.86 18.8132 20.39 17.3832 19.73 16.2832L18.58 14.3732C18.28 13.8532 18.02 12.9232 18.02 12.3132V9.42316C18.02 6.12316 15.32 3.42316 12.02 3.42316Z" stroke="white" stroke-width="2" stroke-miterlimit="10" stroke-linecap="round"/>
<path d="M13.87 3.71319C13.56 3.62319 13.24 3.55319 12.91 3.51319C11.95 3.39319 11.03 3.46319 10.17 3.71319C10.46 2.97319 11.18 2.45319 12.02 2.45319C12.86 2.45319 13.58 2.97319 13.87 3.71319Z" stroke="white" stroke-width="2" stroke-miterlimit="10" stroke-linecap="round" stroke-linejoin="round"/>
<path d="M15.02 19.5732C15.02 21.2232 13.67 22.5732 12.02 22.5732C11.2 22.5732 10.44 22.2332 9.89999 21.6932C9.35999 21.1532 9.01999 20.3932 9.01999 19.5732" stroke="white" stroke-width="2" stroke-miterlimit="10"/>
</svg>
