<svg width="24" height="24" viewBox="0 0 24 24" fill="none" xmlns="http://www.w3.org/2000/svg">
<path d="M13.73 3.50663L15.49 7.02664C15.73 7.51664 16.37 7.98663 16.91 8.07663L20.1 8.60663C22.14 8.94663 22.62 10.4266 21.15 11.8866L18.67 14.3666C18.25 14.7866 18.02 15.5966 18.15 16.1766L18.86 19.2466C19.42 21.6766 18.13 22.6166 15.98 21.3466L12.99 19.5766C12.45 19.2566 11.56 19.2566 11.01 19.5766L8.01997 21.3466C5.87997 22.6166 4.57997 21.6666 5.13997 19.2466L5.84997 16.1766C5.97997 15.5966 5.74997 14.7866 5.32997 14.3666L2.84997 11.8866C1.38997 10.4266 1.85997 8.94663 3.89997 8.60663L7.08997 8.07663C7.61997 7.98663 8.25997 7.51664 8.49997 7.02664L10.26 3.50663C11.22 1.59663 12.78 1.59663 13.73 3.50663Z" stroke="white" stroke-width="2" stroke-linecap="round" stroke-linejoin="round"/>
</svg>
